<svg width="50" height="57" viewBox="0 0 50 57" fill="none" xmlns="http://www.w3.org/2000/svg">
<g clip-path="url(#clip0_22_101)">
<path d="M8.11369 20.989L0 22.7472L8.11369 24.5055L10.1421 31.5385L12.5085 24.5055L20.6222 22.7472L12.5085 20.989L9.804 13.0769L8.11369 20.989Z" fill="#2C0958"/>
<path d="M42.2423 26.9231L37.6562 27.9487L42.2423 28.9744L43.3888 33.0769L44.7263 28.9744L49.3123 27.9487L44.7263 26.9231L43.1976 22.3077L42.2423 26.9231Z" fill="#2C0958"/>
<path d="M15.9188 51.0989L13.4495 51.685L15.9188 52.2711L16.5362 54.6154L17.2564 52.2711L19.7258 51.685L17.2564 51.0989L16.4332 48.4615L15.9188 51.0989Z" fill="#2C0958"/>
<path d="M3.88045 50.7693L0 51.7949L3.88045 52.8206L4.85056 56.9231L5.98236 52.8206L9.86285 51.7949L5.98236 50.7693L4.68888 46.1539L3.88045 50.7693Z" fill="#2C0958"/>
<path d="M25.0181 5.27472L19.7266 6.44688L25.0181 7.61905L26.341 12.3077L27.8843 7.61905L33.1759 6.44688L27.8843 5.27472L26.1205 0L25.0181 5.27472Z" fill="#2C0958"/>
<path d="M31.1593 20.3297L28.6899 20.9158L31.1593 21.5019L31.7766 23.8462L32.4969 21.5019L34.9662 20.9158L32.4969 20.3297L31.6738 17.6923L31.1593 20.3297Z" fill="#2C0958"/>
</g>
<defs>
<clipPath id="clip0_22_101">
<rect width="50" height="56.9231" fill="white"/>
</clipPath>
</defs>
</svg>
